<svg xmlns="http://www.w3.org/2000/svg" viewBox="0 0 64 64">
  <rect width="64" height="64" rx="14" fill="transparent"/>
  <defs>
    <clipPath id="cube">
      <path d="M32 3 L56 17 L56 47 L32 61 L8 47 L8 17Z"/>
    </clipPath>
  </defs>
  <g clip-path="url(#cube)">
    <path d="M32 3 L56 17 L32 31 L8 17Z" fill="#0097D4"/>
    <path d="M8 17 L32 31 L32 61 L8 47Z" fill="#006DA6"/>
    <path d="M56 17 L32 31 L32 61 L56 47Z" fill="#00B4F0"/>
    <line x1="32" y1="3" x2="32" y2="31" stroke="#004D7A" stroke-width="0.8" opacity="0.4"/>
    <line x1="8" y1="17" x2="32" y2="31" stroke="#004D7A" stroke-width="0.8" opacity="0.4"/>
    <line x1="56" y1="17" x2="32" y2="31" stroke="#004D7A" stroke-width="0.8" opacity="0.4"/>
    <line x1="32" y1="31" x2="32" y2="61" stroke="#004D7A" stroke-width="0.8" opacity="0.4"/>
    <line x1="20" y1="24" x2="44" y2="54" stroke="#004D7A" stroke-width="0.8" opacity="0.4"/>
    <line x1="44" y1="24" x2="20" y2="54" stroke="#004D7A" stroke-width="0.8" opacity="0.4"/>
    <path d="M20 10 L32 17 L32 3Z" fill="#FFD54F" opacity="0.9"/>
    <path d="M44 39 L56 47 L56 33Z" fill="#FFD54F" opacity="0.7"/>
    <path d="M20 47 L32 54 L20 54Z" fill="#FFD54F" opacity="0.5"/>
  </g>
  <path d="M32 3 L56 17 L56 47 L32 61 L8 47 L8 17Z" fill="none" stroke="#004D7A" stroke-width="1.2"/>
</svg>
